# Blender v2.82 (sub 7) OBJ File: ''
# www.blender.org
mtllib fl.hip.mtl
o fl_hipx08.042
v -0.040000 -0.027500 0.001600
v -0.036000 -0.026700 -0.003300
v -0.036000 -0.026700 0.003500
v -0.036000 -0.025800 0.008000
v -0.040000 -0.022900 0.014100
v -0.036000 -0.024100 0.012200
v -0.036000 -0.021700 0.016100
v -0.040000 -0.016900 0.020900
v -0.036000 -0.018600 0.019500
v -0.036000 -0.013100 0.023500
v -0.040000 -0.008900 0.025300
v -0.036000 -0.000700 0.027400
v -0.040000 0.000000 0.026900
v -0.040000 0.008900 0.025300
v -0.036000 0.013100 0.023500
v -0.040000 0.016900 0.020900
v -0.036000 0.018600 0.019500
v -0.040000 0.021700 0.016100
v -0.036000 0.021700 0.016100
v -0.036000 0.024100 0.012200
v -0.040000 0.024100 0.012200
v -0.036000 0.025800 0.008000
v -0.040000 0.027500 0.000600
v -0.036000 0.026700 0.003500
v -0.036000 0.026700 -0.003300
v -0.036000 -0.021900 -0.026200
v -0.040000 -0.022200 -0.025400
v -0.040000 -0.020200 -0.028700
v -0.036100 -0.020200 -0.028700
v -0.040000 -0.005600 -0.034500
v -0.036000 0.001500 -0.034800
v -0.036000 -0.009800 -0.033600
v -0.040000 -0.013900 -0.032200
v -0.036000 0.011500 -0.033100
v -0.040000 0.009900 -0.033500
v -0.040000 0.020200 -0.028600
v -0.036000 0.021600 -0.027900
v -0.040000 0.022000 -0.026000
v -0.040000 0.001800 -0.034900
v 0.039881 0.039888 -0.037446
v 0.026233 0.037700 -0.038144
v 0.027317 0.038946 -0.036832
v 0.000092 0.044014 -0.004452
v -0.008172 0.042992 0.005266
v 0.040717 0.046801 0.004134
v 0.041710 0.046699 -0.005365
v 0.033904 0.046374 0.000523
v 0.033912 0.001118 -0.046504
v 0.014302 0.003112 -0.045120
v 0.041706 0.000683 -0.047771
v 0.041709 -0.004932 -0.046769
v 0.014170 -0.009298 -0.044204
v 0.035223 -0.046589 -0.001054
v -0.000107 -0.043980 -0.004327
v 0.041700 -0.046139 -0.008853
v 0.041248 -0.046835 0.003876
v -0.035069 0.011413 0.038930
v -0.034871 -0.012002 0.038325
v -0.036500 0.000000 0.044500
v -0.028750 0.025494 0.030507
v -0.032500 0.016600 0.053500
v -0.036421 -0.004011 0.053502
v -0.016877 0.032466 0.053500
v -0.025100 0.026500 0.053500
v 0.026211 -0.037631 -0.038173
v 0.027360 -0.038966 -0.036822
v 0.031744 0.019749 0.053464
v 0.018292 0.031832 0.053495
v -0.012700 -0.034200 0.053500
v -0.007620 -0.043222 0.004893
v -0.003613 -0.036486 0.053551
v 0.007956 -0.037795 -0.020059
v 0.003997 0.036507 0.053503
v 0.022272 -0.035045 -0.036836
v -0.005500 0.036100 0.053500
v 0.014400 -0.017100 -0.042400
v 0.012699 -0.018446 -0.039556
v 0.040003 -0.037091 -0.039989
v -0.019037 -0.036558 0.018613
v -0.026960 -0.028480 0.028331
v -0.018021 -0.034538 0.015993
v 0.041503 0.037664 0.040015
v -0.026926 -0.022791 0.026860
v 0.012783 0.000435 -0.042947
v -0.031225 -0.007314 0.032064
v 0.041700 0.023500 0.047500
v -0.035800 0.007300 0.053500
v 0.041581 0.040034 0.037075
v -0.003528 -0.039224 -0.003614
v 0.041648 0.039661 -0.039502
v 0.041662 -0.040345 -0.036317
v 0.008782 0.037661 -0.021152
v 0.039217 0.037526 -0.039819
v 0.013979 0.016028 -0.042608
v 0.039215 0.038987 0.039230
v 0.017738 0.037380 -0.030255
v 0.022368 0.034847 -0.037028
v 0.012206 -0.034625 0.053496
v 0.040749 -0.039964 0.037437
v 0.040317 -0.038711 0.039541
v 0.041652 -0.039508 -0.039653
v -0.006736 0.038939 0.000615
v -0.021677 0.034402 0.022096
v 0.012685 0.018523 -0.039549
v -0.036100 0.018100 0.024200
v -0.036100 -0.029700 0.002500
v -0.036100 -0.018700 0.023300
v -0.029846 0.015445 0.030380
v -0.022696 -0.028837 0.053498
v -0.032098 -0.017588 0.053507
v -0.021713 0.031097 0.020537
v 0.041615 -0.000444 0.047753
v 0.041700 -0.023500 0.047500
v 0.041634 -0.039681 0.039452
v 0.036351 -0.000000 0.053560
v 0.033804 -0.014250 0.053495
v 0.025050 -0.026743 0.053504
v -0.036018 -0.020619 -0.028558
v -0.036100 0.030100 -0.004100
v -0.036000 0.020500 -0.029000
v -0.036000 -0.002900 0.028800
v -0.027500 0.033000 -0.012800
v -0.027400 0.035000 0.001800
v -0.027500 0.030600 0.018300
v -0.027500 -0.033200 0.013000
v -0.027400 -0.034700 -0.005300
v 0.048000 0.039500 -0.039700
v 0.048000 -0.000500 -0.047800
v 0.048000 -0.039700 -0.039500
v 0.041700 -0.047800 -0.000500
v 0.048000 -0.047800 0.000500
v 0.048000 -0.039500 0.039700
v 0.048000 0.000500 0.047800
v 0.041700 0.039500 0.039700
v 0.048000 0.039700 0.039500
v 0.041700 0.047800 0.000500
v 0.048000 0.047800 -0.000500
v -0.035900 -0.007500 -0.034300
v 0.037234 -0.038731 -0.038683
v -0.035900 0.006400 -0.034600
v -0.027400 -0.029800 -0.018500
v 0.060300 0.023400 -0.030500
v 0.053000 0.023600 -0.030800
v 0.058900 0.016400 -0.034800
v 0.053100 0.010200 -0.037000
v 0.053100 -0.003400 -0.038200
v 0.055700 0.001900 -0.038400
v 0.057100 0.008300 -0.037500
v 0.057100 -0.008500 -0.037500
v 0.055600 -0.000400 -0.038500
v 0.058900 -0.016300 -0.034900
v 0.053100 -0.013600 -0.036000
v 0.060300 -0.022100 -0.031500
v 0.053000 -0.023500 -0.030800
v 0.060300 -0.023400 -0.030500
v 0.053100 0.046400 -0.006500
v 0.048100 0.046400 -0.006500
v 0.048100 0.046400 0.006500
v 0.053100 0.046400 0.006500
v 0.053100 -0.046400 0.006500
v 0.048100 -0.047700 0.000500
v 0.053100 -0.046400 -0.006500
v 0.055700 -0.002100 -0.047000
v 0.056100 0.004600 -0.046700
v 0.053100 -0.009800 -0.046000
v 0.048100 -0.000600 -0.047600
v 0.056600 -0.007200 -0.046400
v 0.053100 -0.015100 -0.044500
v 0.058200 -0.016300 -0.044000
v 0.053100 -0.022200 -0.041500
v 0.059400 -0.022400 -0.041300
v 0.060300 -0.028600 -0.037300
v 0.053100 -0.028600 -0.037300
v 0.060300 -0.027000 -0.038500
v 0.053100 0.009800 -0.046000
v 0.058000 0.015000 -0.044500
v 0.053100 0.015100 -0.044500
v 0.053100 0.022200 -0.041500
v 0.059800 0.024700 -0.039900
v 0.053100 0.028600 -0.037300
v 0.060300 0.028600 -0.037300
v 0.053100 0.037100 -0.040000
v 0.053100 0.040400 -0.036100
v 0.053100 -0.036100 -0.040400
v 0.053100 -0.040000 -0.037100
v 0.053100 0.039400 0.039600
v 0.053100 -0.039600 0.039400
v 0.053100 -0.000500 0.047700
v 0.048100 0.039400 -0.039600
v 0.048100 -0.039600 -0.039400
v 0.048100 -0.036100 0.040400
v 0.048100 -0.039600 0.038100
v 0.048100 -0.040400 0.036100
v 0.048100 0.000500 0.047700
v 0.048100 0.038100 0.039600
v 0.048100 0.036100 0.040400
v 0.048100 0.040400 0.036100
vn 0.1961 -0.9806 -0.0000
vn 0.1024 -0.9754 0.1951
vn -0.0066 -0.8516 0.5241
vn 0.0331 -0.5878 0.8083
vn -0.1110 -0.4789 0.8708
vn 0.1135 -0.2981 0.9478
vn -0.1522 -0.1749 0.9728
vn -0.0917 0.1762 0.9801
vn 0.1459 0.2690 0.9520
vn -0.1110 0.4789 0.8708
vn 0.0331 0.5879 0.8083
vn 0.0000 0.8517 0.5241
vn 0.0000 0.9269 0.3752
vn -0.1118 0.9536 0.2795
vn 0.0539 0.9792 0.1958
vn 0.1961 0.9806 0.0000
vn 0.0324 -0.9782 -0.2050
vn -0.0397 -0.9805 -0.1925
vn -0.0395 -0.8545 -0.5179
vn -0.0000 -0.8269 -0.5623
vn 0.1121 -0.1049 -0.9881
vn -0.0000 -0.4856 -0.8742
vn -0.0634 -0.2665 -0.9617
vn 0.1205 -0.4241 -0.8976
vn -0.0813 0.4282 -0.9000
vn -0.0046 0.4577 -0.8891
vn -0.1849 0.8080 -0.5594
vn -1.0000 0.0000 0.0000
vn 0.0209 -0.0540 -0.9983
vn -0.0000 0.9789 -0.2045
vn 0.0004 0.9795 -0.2015
vn -0.0021 0.9792 -0.2030
vn 0.0318 0.1697 -0.9850
vn 0.0362 0.1679 -0.9851
vn 0.0372 0.1675 -0.9852
vn -0.1144 -0.7341 0.6693
vn 1.0000 -0.0000 0.0000
vn -0.0780 0.7367 0.6717
vn -0.1519 -0.9276 0.3413
vn -0.0994 -0.9224 0.3733
vn -0.0884 0.7575 -0.6468
vn -0.0879 0.7576 -0.6468
vn -0.0888 0.7579 -0.6463
vn -0.0767 0.9963 0.0395
vn -0.0650 0.9974 -0.0312
vn -0.1216 -0.8883 -0.4430
vn -0.0758 -0.0540 -0.9957
vn -0.0811 -0.0725 -0.9941
vn -0.0631 -0.9920 -0.1096
vn -0.0777 -0.9959 0.0453
vn -0.9677 -0.0017 -0.2520
vn -0.9095 0.4156 0.0124
vn -0.9927 -0.1133 -0.0418
vn -0.0026 -0.0009 1.0000
vn -0.0000 0.0000 1.0000
vn -0.3929 -0.7989 -0.4554
vn 0.0064 0.0027 1.0000
vn -0.0003 -0.0026 1.0000
vn -0.2419 -0.9582 0.1526
vn -0.5197 -0.6702 -0.5299
vn -0.0006 -0.0026 1.0000
vn -0.5746 -0.5731 -0.5843
vn -0.0004 0.0016 1.0000
vn -0.8144 -0.1534 -0.5597
vn -0.0589 -0.2029 -0.9774
vn -0.8382 -0.2236 -0.4975
vn -0.0735 0.9867 0.1451
vn -0.0675 0.9767 -0.2035
vn 0.2260 0.6899 0.6877
vn -0.8654 -0.1206 -0.4863
vn -0.9005 -0.0730 -0.4286
vn -0.7977 -0.0359 -0.6019
vn -0.8443 -0.0553 -0.5330
vn 0.3312 0.4445 0.8323
vn 0.3760 0.4165 0.8277
vn -0.9979 0.0548 -0.0346
vn -0.0039 0.9795 0.2013
vn -0.7292 -0.4137 -0.5451
vn -0.1083 0.9737 -0.2005
vn -0.7096 -0.4513 -0.5411
vn -0.0727 -0.9759 -0.2058
vn -0.6953 0.4725 -0.5416
vn -0.1199 0.2649 -0.9568
vn 0.1805 0.7921 0.5830
vn 0.2076 0.7392 0.6407
vn -0.3839 0.8068 -0.4491
vn -0.5082 0.6830 -0.5246
vn -0.5167 0.6741 -0.5278
vn -0.5169 0.6727 -0.5294
vn -0.5795 0.5497 -0.6017
vn -0.5129 0.6790 -0.5252
vn 0.1402 -0.8378 0.5277
vn -0.0952 -0.2005 -0.9751
vn -0.1158 -0.2638 -0.9576
vn -0.6289 -0.4866 -0.6064
vn -0.0040 -0.9797 0.2005
vn -0.8132 0.2905 -0.5043
vn -0.8029 -0.2793 -0.5267
vn -0.5385 0.4511 -0.7117
vn -0.6150 0.4633 -0.6381
vn -0.0762 0.2054 -0.9757
vn -1.0000 0.0004 -0.0021
vn -1.0000 0.0016 -0.0006
vn -0.8561 0.0137 -0.5166
vn -0.4221 0.8986 0.1199
vn -0.7617 -0.6367 0.1200
vn -0.0002 0.0002 1.0000
vn -0.6482 -0.7550 0.0991
vn -0.0003 0.0002 1.0000
vn -0.8937 0.0782 -0.4418
vn -0.8592 0.0769 -0.5059
vn -0.8695 0.1009 -0.4835
vn -0.8382 0.0982 -0.5364
vn 0.0007 0.0005 1.0000
vn -0.9004 -0.4350 0.0044
vn 0.9994 -0.0039 -0.0337
vn 0.0002 -0.0005 1.0000
vn 0.9999 0.0039 -0.0160
vn -0.8513 0.2314 -0.4709
vn -0.0018 -0.0023 1.0000
vn -0.5816 0.8016 0.1383
vn -0.0048 0.0021 1.0000
vn -0.7380 0.6690 0.0879
vn 0.1044 -0.8733 0.4759
vn 0.0013 0.0005 1.0000
vn 0.5265 -0.0980 0.8445
vn 0.3792 -0.4558 0.8053
vn -0.2581 -0.4298 0.8653
vn -0.2578 -0.4294 0.8655
vn -0.2576 -0.4292 0.8657
vn 0.3720 -0.2600 0.8911
vn 0.4780 0.1157 0.8707
vn -0.0012 -0.0043 1.0000
vn 0.7393 0.0036 0.6734
vn 0.7411 0.0045 0.6714
vn 0.7398 -0.0041 0.6728
vn -0.0052 0.0037 1.0000
vn -1.0000 0.0000 -0.0007
vn -1.0000 -0.0016 -0.0036
vn -1.0000 0.0004 -0.0042
vn -0.9998 -0.0005 0.0196
vn -0.4241 0.8976 -0.1201
vn -0.5826 0.7862 0.2061
vn -0.7307 0.6285 0.2665
vn -0.3288 0.6193 0.7130
vn -0.6594 0.1579 0.7351
vn -0.5011 0.0940 0.8603
vn -0.6871 -0.2350 0.6875
vn -0.5084 -0.6783 0.5305
vn -0.6812 -0.6471 0.3422
vn -0.4487 -0.8909 0.0706
vn -0.6269 -0.7473 -0.2202
vn 0.0328 0.1984 -0.9796
vn 0.0173 -0.2071 -0.9782
vn -0.0240 -0.9697 -0.2432
vn -0.0229 -0.9697 -0.2430
vn -0.0235 -0.9697 -0.2432
vn 0.0315 -0.9796 -0.1984
vn -0.0316 -0.9795 0.1990
vn 0.0197 -0.9781 0.2071
vn 0.0221 -0.1984 0.9799
vn -0.0366 0.1988 0.9794
vn -0.1310 0.1813 0.9747
vn 0.0245 0.2071 0.9780
vn -0.0245 0.9780 0.2071
vn 0.0315 0.9796 0.1984
vn -0.0153 0.9793 -0.2019
vn -0.0293 0.9824 -0.1845
vn 0.0183 0.9781 -0.2071
vn -0.1593 -0.2484 -0.9555
vn -0.2548 -0.3015 -0.9188
vn -0.2549 -0.3011 -0.9189
vn -0.1674 -0.1733 -0.9705
vn -0.1446 -0.1743 -0.9740
vn -0.1750 0.9604 0.2167
vn -0.1751 0.9632 0.2039
vn -0.1778 0.9627 0.2039
vn -0.2233 0.9536 0.2018
vn -0.2348 0.9504 0.2040
vn -0.1680 0.9539 0.2485
vn -0.1675 0.9538 0.2495
vn -0.1711 0.9512 0.2570
vn -0.1578 0.2415 -0.9575
vn -0.5098 -0.8065 -0.2994
vn -0.2198 0.1878 0.9573
vn -0.5413 -0.7666 0.3454
vn -0.1649 -0.9666 0.1961
vn -0.1649 -0.9666 0.1962
vn -0.1646 -0.9667 0.1962
vn -0.1374 -0.9708 0.1967
vn -0.1378 -0.9707 0.1967
vn -0.1962 -0.9616 0.1918
vn -0.1774 0.9672 -0.1819
vn -0.1929 0.9723 -0.1319
vn -0.1649 0.9707 -0.1745
vn -0.1693 0.9658 -0.1964
vn -0.1917 -0.9772 0.0919
vn -0.1640 -0.9832 0.0797
vn -0.0541 0.2067 -0.9769
vn -0.0541 0.2072 -0.9768
vn -0.0549 0.2075 -0.9767
vn -0.1093 -0.9044 -0.4124
vn -0.1445 0.1819 -0.9726
vn -0.1644 -0.9674 -0.1924
vn -0.2185 -0.9467 -0.2369
vn -0.2217 -0.9143 -0.3390
vn -0.2217 -0.9143 -0.3391
vn -0.2217 -0.9142 -0.3393
vn -0.1686 -0.9648 -0.2016
vn -0.5223 0.6732 -0.5234
vn -0.5231 0.6727 -0.5233
vn -0.5226 0.6726 -0.5239
vn -0.2711 0.8257 -0.4947
vn -0.2710 0.8256 -0.4949
vn -0.2706 0.8257 -0.4950
vn -0.2706 0.8263 -0.4940
vn -0.5627 0.7706 -0.2993
vn -0.1715 -0.0213 -0.9850
vn -0.9998 -0.0010 -0.0215
vn -0.9998 -0.0001 -0.0185
vn -0.9999 -0.0004 -0.0169
vn -0.9998 0.0002 -0.0200
vn -0.2742 -0.8156 -0.5095
vn 0.3182 -0.5194 0.7931
vn 0.7407 -0.0046 0.6718
vn -0.4804 -0.3965 0.7823
vn -0.0375 -0.1756 -0.9838
vn -0.0796 0.7176 -0.6919
vn -0.0913 -0.5215 -0.8484
vn -0.0723 0.9972 0.0186
vn -0.0733 -0.9971 0.0223
vn -0.0700 -0.9873 0.1424
vn -0.3008 0.9416 0.1512
vn -0.8326 -0.1340 -0.5374
vn -0.4679 -0.8720 0.1439
vn -0.9510 -0.3028 0.0623
vn -0.0858 -0.9712 -0.2224
vn -0.0530 0.1894 -0.9805
vn -0.8660 0.0056 -0.5001
vn -0.9414 0.3340 0.0471
vn -0.7969 0.5957 0.1004
vn -0.4142 0.6057 0.6794
vn -0.0252 0.2074 -0.9779
vn -0.0185 -0.2015 -0.9793
vn 0.0536 -0.9794 -0.1948
vn -0.0041 -0.9785 -0.2064
vn -0.0322 -0.2069 0.9778
vn -0.1793 0.9509 0.2525
vn -0.2910 -0.7592 0.5822
vn -0.0493 -0.5156 0.8554
vn 0.1033 -0.4170 0.9030
vn 0.2478 -0.0852 0.9651
vn 0.0521 -0.1502 0.9873
vn -0.0286 -0.3104 0.9502
vn -0.0229 0.1183 0.9927
vn 0.1785 -0.0505 0.9826
vn -0.0367 0.3084 0.9506
vn 0.0973 0.2098 0.9729
vn -0.0137 0.5032 0.8641
vn 0.0483 0.4641 0.8845
vn -0.0409 0.6092 0.7920
vn 0.0000 1.0000 0.0000
vn 0.2516 -0.9678 -0.0000
vn 0.9979 -0.0606 0.0239
vn 0.9984 -0.0449 0.0335
vn 0.0105 -0.1658 -0.9861
vn 0.0919 -0.2712 -0.9581
vn 0.0363 -0.2489 -0.9679
vn -0.0013 -0.3892 -0.9211
vn 0.0163 -0.4020 -0.9155
vn -0.0000 -0.6000 -0.8000
vn -0.0174 -0.5486 -0.8359
vn 0.0107 -0.5184 -0.8551
vn 0.0573 -0.1067 -0.9926
vn 0.0864 0.0394 -0.9955
vn 0.0180 0.1436 -0.9895
vn 0.0989 0.1886 -0.9771
vn 0.0056 0.2723 -0.9622
vn 0.0602 0.4186 -0.9062
vn 0.0079 0.3892 -0.9211
vn -0.0025 0.5517 -0.8340
vn -0.0051 0.5486 -0.8360
vn 0.0006 0.5531 -0.8331
vn -0.0000 0.5547 -0.8321
vn 0.9943 -0.0844 -0.0646
vn 1.0000 -0.0044 0.0036
vn 1.0000 -0.0039 0.0007
vn 1.0000 -0.0046 0.0017
vn 1.0000 -0.0002 -0.0059
vn 1.0000 0.0032 -0.0003
vn 1.0000 0.0053 0.0008
vn 0.9999 0.0003 0.0152
vn 1.0000 0.0056 0.0012
vn 1.0000 -0.0032 -0.0003
vn 1.0000 -0.0013 0.0005
vn 1.0000 0.0013 0.0005
vn 1.0000 -0.0019 -0.0055
vn 1.0000 0.0065 0.0018
vn 1.0000 -0.0081 0.0031
vn 0.9998 0.0065 0.0204
vn 1.0000 -0.0047 0.0040
vn -0.0000 -0.7944 0.6075
vn -0.0146 -0.7868 0.6171
vn -0.0032 0.7944 0.6074
vn -0.0030 0.7944 0.6074
vn -0.0004 0.7925 0.6098
vn 0.0000 0.7926 0.6097
vn 0.9773 -0.2108 -0.0215
vn 0.9844 -0.1718 -0.0379
vn 0.9785 -0.1966 -0.0624
vn 0.9860 -0.1509 -0.0716
vn 0.9862 -0.1499 -0.0699
vn 0.9856 -0.1520 -0.0735
vn 0.9838 0.1762 -0.0319
vn 0.9855 0.1662 -0.0329
vn 0.9858 0.1651 -0.0313
vn 0.9837 0.1745 -0.0429
vn 0.9850 0.1712 -0.0226
vn 0.9845 0.1740 -0.0221
vn 0.9763 0.1904 -0.1033
vn 0.9761 0.1902 -0.1051
vn 0.9786 0.1792 -0.1007
vn 0.9863 0.1353 -0.0947
vn 0.9790 0.1804 -0.0954
vn 0.2869 0.7313 -0.6188
vn -0.0508 0.9771 -0.2066
vn 0.0000 0.9801 -0.1987
vn -0.0937 0.1953 -0.9763
vn 0.0206 0.2146 -0.9765
vn 0.2869 -0.6188 -0.7313
vn -0.0516 -0.2055 -0.9773
vn -0.0700 -0.2077 -0.9757
vn -0.0237 -0.9797 -0.1989
vn 0.0159 -0.9787 -0.2047
vn -0.2123 -0.5367 0.8167
vn -0.0961 -0.9242 0.3697
vn 0.0242 -0.9793 0.2008
vn 0.0203 -0.9800 0.1982
vn 0.0174 -0.9782 0.2068
vn 0.0203 -0.9799 0.1982
vn 0.0117 -0.9792 0.2024
vn -0.0391 -0.1955 0.9799
vn 0.0502 -0.2074 0.9770
vn -0.0961 0.3697 0.9242
vn 0.0242 0.2008 0.9793
vn 0.0398 0.1988 0.9792
vn 0.0000 0.9801 0.1987
vn 0.0508 0.9771 0.2066
vn 0.0017 0.9793 -0.2025
vn 0.0000 0.9789 -0.2044
vn 0.0304 0.1702 -0.9849
vn -0.0868 -0.7470 0.6591
vn 0.0000 0.7071 0.7071
vn -0.3780 -0.9165 0.1306
vn -0.0858 -0.2268 -0.9701
vn -0.0422 0.9839 0.1737
vn -0.0837 0.9714 -0.2224
vn -0.9833 0.1629 0.0812
vn -0.7458 0.3709 -0.5534
vn -0.5285 -0.4252 -0.7347
vn -0.8186 0.2523 -0.5160
vn -0.8001 -0.2939 -0.5230
vn -0.2232 -0.3892 -0.8937
vn -0.2133 0.3593 -0.9085
vn -0.0463 -0.7300 -0.6819
usemtl Default_OBJ.001
s 1
f 1//1 2//1 3//1
f 1//2 3//2 4//2
f 5//3 6//3 7//3
f 8//4 9//4 10//4
f 8//5 10//5 11//5
f 11//6 10//6 12//6
f 11//7 12//7 13//7
f 13//8 12//8 14//8
f 14//9 12//9 15//9
f 14//10 15//10 16//10
f 16//11 15//11 17//11
f 18//12 19//12 20//12
f 18//12 20//12 21//12
f 21//13 20//13 22//13
f 21//14 22//14 23//14
f 23//15 22//15 24//15
f 23//16 24//16 25//16
f 26//17 2//17 27//17
f 27//18 2//18 1//18
f 26//19 27//19 28//19
f 26//20 28//20 29//20
f 30//21 31//21 32//21
f 29//22 28//22 33//22
f 30//23 32//23 33//23
f 33//24 32//24 29//24
f 34//25 35//25 36//25
f 34//26 36//26 37//26
f 38//27 37//27 36//27
f 1//28 38//28 27//28
f 31//29 30//29 39//29
f 38//28 16//28 18//28
f 37//30 23//31 25//32
f 38//28 18//28 21//28
f 39//33 34//34 31//35
f 38//28 36//28 35//28
f 38//28 21//28 23//28
f 7//36 9//36 5//36
f 38//28 35//28 39//28
f 38//28 39//28 30//28
f 22//37 20//37 19//37
f 38//28 30//28 33//28
f 38//28 33//28 28//28
f 22//37 19//37 17//37
f 38//28 28//28 27//28
f 22//37 25//37 24//37
f 17//38 19//38 16//38
f 8//28 38//28 5//28
f 4//39 5//39 1//39
f 38//28 11//28 13//28
f 4//40 6//40 5//40
f 38//28 13//28 14//28
f 38//28 14//28 16//28
f 40//41 41//42 42//43
f 43//44 44//44 45//44
f 46//45 43//45 47//45
f 48//46 49//46 50//46
f 48//47 51//47 49//47
f 52//48 49//48 51//48
f 53//49 54//49 55//49
f 53//50 56//50 54//50
f 57//51 58//51 59//51
f 60//52 57//52 61//52
f 59//53 58//53 62//53
f 63//54 64//55 61//55
f 65//56 66//56 54//56
f 63//54 67//57 68//58
f 69//59 70//59 71//59
f 54//60 72//60 65//60
f 63//54 68//58 73//61
f 74//62 65//62 72//62
f 63//54 73//61 75//63
f 52//64 76//64 77//64
f 78//65 52//65 51//65
f 79//66 80//66 81//66
f 75//67 45//67 44//67
f 40//68 43//68 46//68
f 82//69 73//69 68//69
f 80//70 58//70 83//70
f 77//71 84//71 52//71
f 49//72 52//72 84//72
f 85//73 83//73 58//73
f 82//74 67//74 86//74
f 82//75 68//75 67//75
f 57//76 62//76 87//76
f 73//77 88//77 45//77
f 89//78 72//78 70//78
f 40//79 46//79 90//79
f 54//80 70//80 72//80
f 55//81 54//81 91//81
f 92//82 44//82 43//82
f 93//83 94//83 41//83
f 95//84 88//84 73//84
f 73//85 82//85 95//85
f 42//86 41//86 43//86
f 92//87 41//88 96//89
f 41//90 97//90 96//90
f 41//88 92//87 43//91
f 98//92 99//92 100//92
f 78//93 51//93 101//93
f 65//94 76//94 78//94
f 65//95 77//95 76//95
f 56//96 99//96 71//96
f 102//97 103//97 44//97
f 89//98 79//98 81//98
f 41//99 94//99 97//99
f 94//100 104//100 97//100
f 93//101 50//101 49//101
f 105//102 106//103 107//28
f 57//104 108//104 85//104
f 103//105 63//105 44//105
f 109//106 110//106 80//106
f 63//54 61//55 87//107
f 79//108 109//108 80//108
f 63//54 87//107 62//109
f 94//110 84//110 104//110
f 94//111 49//111 84//111
f 57//112 60//112 108//112
f 60//113 111//113 108//113
f 63//54 62//109 110//114
f 110//115 58//115 80//115
f 82//116 86//116 112//116
f 63//54 110//114 109//117
f 112//118 113//118 114//118
f 111//119 60//119 103//119
f 63//54 109//117 69//120
f 103//121 64//121 63//121
f 63//54 69//120 71//122
f 64//123 103//123 60//123
f 98//124 71//124 99//124
f 63//54 71//122 98//125
f 115//126 116//126 113//126
f 117//127 100//127 113//127
f 114//128 113//129 100//130
f 63//54 98//125 117//55
f 116//131 117//131 113//131
f 67//132 115//132 86//132
f 63//54 117//55 116//133
f 112//134 86//135 115//136
f 63//54 116//133 115//137
f 63//54 115//137 67//57
f 118//138 105//102 119//139
f 119//139 120//140 118//138
f 107//141 121//141 105//141
f 122//142 119//142 123//142
f 123//143 119//143 124//143
f 124//144 119//144 105//144
f 108//145 111//145 124//145
f 105//146 121//146 108//146
f 108//147 121//147 85//147
f 121//148 107//148 85//148
f 83//149 107//149 125//149
f 125//150 107//150 106//150
f 125//151 106//151 126//151
f 126//152 106//152 118//152
f 50//153 127//153 128//153
f 101//154 128//154 129//154
f 91//155 101//156 129//157
f 130//158 129//158 131//158
f 130//159 131//159 114//159
f 114//160 131//160 132//160
f 112//161 132//161 133//161
f 133//162 82//162 112//162
f 133//163 134//163 82//163
f 134//164 133//164 135//164
f 134//165 135//165 136//165
f 136//166 135//166 137//166
f 137//167 90//167 46//167
f 46//168 136//168 137//168
f 90//169 137//169 127//169
f 137//37 135//37 133//37
f 131//37 133//37 132//37
f 133//37 131//37 129//37
f 74//170 138//170 77//170
f 128//37 133//37 129//37
f 78//171 101//171 139//172
f 51//173 48//173 50//173
f 127//37 133//37 128//37
f 138//174 84//174 77//174
f 45//175 136//175 47//175
f 134//176 136//176 88//177
f 136//178 45//178 88//178
f 88//179 95//179 134//179
f 111//180 102//181 123//182
f 140//183 97//183 104//183
f 141//184 126//184 118//184
f 134//185 95//185 82//185
f 99//186 114//186 100//186
f 130//187 114//188 56//189
f 114//190 99//190 56//191
f 56//192 53//192 130//192
f 136//193 46//193 47//193
f 122//194 123//194 102//194
f 122//195 102//195 92//195
f 92//196 96//196 122//196
f 89//197 81//197 126//197
f 125//198 126//198 81//198
f 90//199 50//200 93//201
f 91//202 65//202 139//202
f 104//203 84//203 140//203
f 53//204 55//204 130//204
f 101//205 91//205 139//205
f 74//206 72//207 141//208
f 72//209 89//209 126//209
f 40//210 90//211 93//212
f 97//213 120//214 122//215
f 122//215 96//216 97//213
f 120//217 119//217 122//217
f 138//218 140//218 84//218
f 138//219 120//220 140//221
f 138//219 118//222 120//220
f 141//223 118//223 74//223
f 117//224 98//224 100//224
f 115//136 113//225 112//134
f 107//226 83//226 85//226
f 51//227 50//227 128//227
f 41//228 40//228 93//228
f 65//229 78//229 139//229
f 43//230 45//230 47//230
f 70//231 54//231 56//231
f 56//232 71//232 70//232
f 63//233 75//233 44//233
f 81//234 80//234 83//234
f 109//235 79//235 69//235
f 62//236 58//236 110//236
f 54//237 66//237 91//237
f 49//238 94//238 93//238
f 58//239 57//239 85//239
f 87//240 61//240 57//240
f 61//241 64//241 60//241
f 124//242 105//242 108//242
f 90//243 127//243 50//243
f 51//244 128//244 101//244
f 129//245 130//245 55//245
f 55//246 91//246 129//246
f 132//247 112//247 114//247
f 123//182 124//248 111//180
f 83//249 125//249 81//249
f 126//208 141//208 72//207
f 142//250 143//250 144//250
f 144//251 143//251 145//251
f 146//252 147//252 145//252
f 147//253 148//253 145//253
f 145//254 148//254 144//254
f 149//255 150//255 146//255
f 146//256 150//256 147//256
f 151//257 149//257 152//257
f 152//258 149//258 146//258
f 153//259 151//259 154//259
f 154//260 151//260 152//260
f 153//261 154//261 155//261
f 156//262 157//262 158//262
f 156//262 158//262 159//262
f 160//263 161//263 162//263
f 150//264 163//264 164//264
f 147//265 150//265 164//265
f 165//266 166//266 167//266
f 165//267 167//267 168//267
f 168//268 167//268 169//268
f 168//269 169//269 170//269
f 170//270 169//270 171//270
f 172//271 173//271 174//271
f 174//272 173//272 170//272
f 174//273 170//273 171//273
f 166//274 163//274 167//274
f 166//275 164//275 163//275
f 164//276 166//276 175//276
f 164//277 175//277 176//277
f 176//278 175//278 177//278
f 178//279 179//279 176//279
f 178//280 176//280 177//280
f 179//281 178//282 180//283
f 179//281 180//283 181//284
f 181//285 142//285 179//285
f 153//37 155//37 174//37
f 174//37 155//37 172//37
f 175//37 182//37 177//37
f 177//37 182//37 178//37
f 183//286 156//287 143//288
f 154//289 160//290 162//291
f 165//37 168//37 184//37
f 184//37 168//37 170//37
f 184//37 170//37 173//37
f 184//37 173//37 185//37
f 185//292 173//292 154//292
f 185//293 154//289 162//291
f 143//288 159//294 186//295
f 154//289 187//296 160//290
f 188//297 146//37 145//298
f 154//289 188//297 187//296
f 146//37 188//297 152//299
f 152//299 188//297 154//289
f 178//37 182//37 180//37
f 180//300 182//300 143//300
f 143//288 182//301 183//286
f 143//288 156//287 159//294
f 143//288 186//295 188//297
f 143//288 188//297 145//298
f 172//302 155//302 173//302
f 173//303 155//303 154//303
f 142//304 181//305 143//306
f 143//306 181//305 180//307
f 148//308 147//308 164//308
f 148//309 164//309 176//309
f 148//310 176//310 144//310
f 144//311 176//312 179//311
f 179//311 142//313 144//311
f 167//314 149//315 169//316
f 169//317 149//317 171//317
f 163//318 150//319 167//314
f 167//314 150//319 149//315
f 171//320 149//321 151//322
f 153//323 174//323 171//323
f 153//324 171//320 151//322
f 182//325 189//325 183//325
f 189//326 157//326 183//326
f 183//327 157//327 156//327
f 166//328 189//328 175//328
f 175//329 189//329 182//329
f 185//330 190//330 184//330
f 190//331 166//331 184//331
f 184//332 166//332 165//332
f 161//333 190//333 162//333
f 162//334 190//334 185//334
f 187//335 191//335 192//335
f 187//336 192//336 193//336
f 193//337 161//338 187//339
f 187//339 161//340 160//341
f 194//342 191//342 188//342
f 188//343 191//343 187//343
f 186//344 195//344 196//344
f 196//345 194//345 186//345
f 186//346 194//346 188//346
f 158//347 197//347 159//347
f 159//348 197//348 186//348
f 5//28 38//28 1//28
f 38//349 23//31 37//350
f 35//351 34//34 39//33
f 5//352 9//352 8//352
f 16//353 19//353 18//353
f 11//28 38//28 8//28
f 79//354 70//354 69//354
f 76//355 52//355 78//355
f 73//356 45//356 75//356
f 42//357 43//357 40//357
f 59//358 62//358 57//358
f 102//359 44//359 92//359
f 74//360 77//360 65//360
f 111//361 103//361 102//361
f 70//362 79//362 89//362
f 118//138 106//103 105//102
f 118//363 138//363 74//363
f 137//37 133//37 127//37
f 120//364 97//364 140//364
f 66//365 65//365 91//365
