# Blender v2.82 (sub 7) OBJ File: ''
# www.blender.org
mtllib hr.hip.mtl
o fl_hipx08.041
v 0.001600 -0.027500 0.040000
v -0.003300 -0.026700 0.036000
v 0.003500 -0.026700 0.036000
v 0.008000 -0.025800 0.036000
v 0.014100 -0.022900 0.040000
v 0.012200 -0.024100 0.036000
v 0.016100 -0.021700 0.036000
v 0.020900 -0.016900 0.040000
v 0.019500 -0.018600 0.036000
v 0.023500 -0.013100 0.036000
v 0.025300 -0.008900 0.040000
v 0.027400 -0.000700 0.036000
v 0.026900 -0.000000 0.040000
v 0.025300 0.008900 0.040000
v 0.023500 0.013100 0.036000
v 0.020900 0.016900 0.040000
v 0.019500 0.018600 0.036000
v 0.016100 0.021700 0.040000
v 0.016100 0.021700 0.036000
v 0.012200 0.024100 0.036000
v 0.012200 0.024100 0.040000
v 0.008000 0.025800 0.036000
v 0.000600 0.027500 0.040000
v 0.003500 0.026700 0.036000
v -0.003300 0.026700 0.036000
v -0.026200 -0.021900 0.036000
v -0.025400 -0.022200 0.040000
v -0.028700 -0.020200 0.040000
v -0.028700 -0.020200 0.036100
v -0.034500 -0.005600 0.040000
v -0.034800 0.001500 0.036000
v -0.033600 -0.009800 0.036000
v -0.032200 -0.013900 0.040000
v -0.033100 0.011500 0.036000
v -0.033500 0.009900 0.040000
v -0.028600 0.020200 0.040000
v -0.027900 0.021600 0.036000
v -0.026000 0.022000 0.040000
v -0.034900 0.001800 0.040000
v -0.037447 0.039888 -0.039881
v -0.038144 0.037700 -0.026233
v -0.036832 0.038946 -0.027317
v -0.004452 0.044014 -0.000092
v 0.005266 0.042992 0.008172
v 0.004134 0.046801 -0.040717
v -0.005365 0.046699 -0.041710
v 0.000523 0.046374 -0.033904
v -0.046504 0.001118 -0.033912
v -0.045120 0.003112 -0.014302
v -0.047771 0.000683 -0.041706
v -0.046769 -0.004932 -0.041709
v -0.044204 -0.009298 -0.014170
v -0.001054 -0.046589 -0.035223
v -0.004327 -0.043980 0.000107
v -0.008853 -0.046140 -0.041700
v 0.003876 -0.046835 -0.041248
v 0.038930 0.011413 0.035069
v 0.038325 -0.012002 0.034871
v 0.044500 -0.000000 0.036500
v 0.030507 0.025494 0.028750
v 0.053500 0.016600 0.032500
v 0.053502 -0.004011 0.036421
v 0.053500 0.032466 0.016877
v 0.053500 0.026500 0.025100
v -0.038173 -0.037631 -0.026211
v -0.036822 -0.038966 -0.027360
v 0.053464 0.019749 -0.031744
v 0.053495 0.031832 -0.018292
v 0.053500 -0.034200 0.012700
v 0.004893 -0.043222 0.007620
v 0.053551 -0.036486 0.003613
v -0.020059 -0.037795 -0.007956
v 0.053503 0.036507 -0.003997
v -0.036836 -0.035045 -0.022272
v 0.053500 0.036100 0.005500
v -0.042400 -0.017100 -0.014400
v -0.039556 -0.018446 -0.012699
v -0.039989 -0.037091 -0.040003
v 0.018613 -0.036558 0.019037
v 0.028331 -0.028480 0.026960
v 0.015993 -0.034538 0.018022
v 0.040015 0.037664 -0.041503
v 0.026860 -0.022791 0.026926
v -0.042947 0.000435 -0.012783
v 0.032064 -0.007314 0.031225
v 0.047500 0.023500 -0.041700
v 0.053500 0.007300 0.035800
v 0.037075 0.040034 -0.041581
v -0.003614 -0.039224 0.003528
v -0.039502 0.039661 -0.041648
v -0.036317 -0.040345 -0.041662
v -0.021152 0.037661 -0.008782
v -0.039819 0.037526 -0.039217
v -0.042608 0.016028 -0.013979
v 0.039230 0.038987 -0.039215
v -0.030255 0.037380 -0.017739
v -0.037028 0.034847 -0.022368
v 0.053496 -0.034625 -0.012206
v 0.037437 -0.039964 -0.040749
v 0.039541 -0.038711 -0.040317
v -0.039653 -0.039508 -0.041652
v 0.000615 0.038939 0.006736
v 0.022096 0.034402 0.021677
v -0.039549 0.018523 -0.012685
v 0.024200 0.018100 0.036100
v 0.002500 -0.029700 0.036100
v 0.023300 -0.018700 0.036100
v 0.030380 0.015445 0.029846
v 0.053498 -0.028837 0.022696
v 0.053507 -0.017588 0.032098
v 0.020537 0.031097 0.021713
v 0.047753 -0.000444 -0.041615
v 0.047500 -0.023500 -0.041700
v 0.039452 -0.039681 -0.041634
v 0.053560 0.000000 -0.036351
v 0.053495 -0.014250 -0.033804
v 0.053504 -0.026743 -0.025050
v -0.028558 -0.020619 0.036018
v -0.004100 0.030100 0.036100
v -0.029000 0.020500 0.036000
v 0.028800 -0.002900 0.036000
v -0.012800 0.033000 0.027500
v 0.001800 0.035000 0.027400
v 0.018300 0.030600 0.027500
v 0.013000 -0.033200 0.027500
v -0.005300 -0.034700 0.027400
v -0.039700 0.039500 -0.048000
v -0.047800 -0.000500 -0.048000
v -0.039500 -0.039700 -0.048000
v -0.000500 -0.047800 -0.041700
v 0.000500 -0.047800 -0.048000
v 0.039700 -0.039500 -0.048000
v 0.047800 0.000500 -0.048000
v 0.039700 0.039500 -0.041700
v 0.039500 0.039700 -0.048000
v 0.000500 0.047800 -0.041700
v -0.000500 0.047800 -0.048000
v -0.034300 -0.007500 0.035900
v -0.038683 -0.038731 -0.037234
v -0.034600 0.006400 0.035900
v -0.018500 -0.029800 0.027400
v -0.030500 0.023400 -0.060300
v -0.030800 0.023600 -0.053000
v -0.034800 0.016400 -0.058900
v -0.037000 0.010200 -0.053100
v -0.038200 -0.003400 -0.053100
v -0.038400 0.001900 -0.055700
v -0.037500 0.008300 -0.057100
v -0.037500 -0.008500 -0.057100
v -0.038500 -0.000400 -0.055600
v -0.034900 -0.016300 -0.058900
v -0.036000 -0.013600 -0.053100
v -0.031500 -0.022100 -0.060300
v -0.030800 -0.023500 -0.053000
v -0.030500 -0.023400 -0.060300
v -0.006500 0.046400 -0.053100
v -0.006500 0.046400 -0.048100
v 0.006500 0.046400 -0.048100
v 0.006500 0.046400 -0.053100
v 0.006500 -0.046400 -0.053100
v 0.000500 -0.047700 -0.048100
v -0.006500 -0.046400 -0.053100
v -0.047000 -0.002100 -0.055700
v -0.046700 0.004600 -0.056100
v -0.046000 -0.009800 -0.053100
v -0.047600 -0.000600 -0.048100
v -0.046400 -0.007200 -0.056600
v -0.044500 -0.015100 -0.053100
v -0.044000 -0.016300 -0.058200
v -0.041500 -0.022200 -0.053100
v -0.041300 -0.022400 -0.059400
v -0.037300 -0.028600 -0.060300
v -0.037300 -0.028600 -0.053100
v -0.038500 -0.027000 -0.060300
v -0.046000 0.009800 -0.053100
v -0.044500 0.015000 -0.058000
v -0.044500 0.015100 -0.053100
v -0.041500 0.022200 -0.053100
v -0.039900 0.024700 -0.059800
v -0.037300 0.028600 -0.053100
v -0.037300 0.028600 -0.060300
v -0.040000 0.037100 -0.053100
v -0.036100 0.040400 -0.053100
v -0.040400 -0.036100 -0.053100
v -0.037100 -0.040000 -0.053100
v 0.039600 0.039400 -0.053100
v 0.039400 -0.039600 -0.053100
v 0.047700 -0.000500 -0.053100
v -0.039600 0.039400 -0.048100
v -0.039400 -0.039600 -0.048100
v 0.040400 -0.036100 -0.048100
v 0.038100 -0.039600 -0.048100
v 0.036100 -0.040400 -0.048100
v 0.047700 0.000500 -0.048100
v 0.039600 0.038100 -0.048100
v 0.040400 0.036100 -0.048100
v 0.036100 0.040400 -0.048100
vn 0.0000 -0.9806 -0.1961
vn 0.1951 -0.9754 -0.1024
vn 0.5241 -0.8516 0.0066
vn 0.8083 -0.5879 -0.0331
vn 0.8708 -0.4789 0.1110
vn 0.9478 -0.2981 -0.1135
vn 0.9728 -0.1749 0.1522
vn 0.9801 0.1762 0.0917
vn 0.9520 0.2690 -0.1459
vn 0.8708 0.4789 0.1110
vn 0.8083 0.5879 -0.0331
vn 0.5241 0.8517 0.0000
vn 0.3752 0.9269 0.0000
vn 0.2795 0.9536 0.1118
vn 0.1958 0.9792 -0.0539
vn 0.0000 0.9806 -0.1961
vn -0.2050 -0.9782 -0.0324
vn -0.1925 -0.9805 0.0397
vn -0.5179 -0.8545 0.0395
vn -0.5623 -0.8269 -0.0000
vn -0.9881 -0.1049 -0.1121
vn -0.8742 -0.4856 -0.0000
vn -0.9617 -0.2665 0.0634
vn -0.8976 -0.4241 -0.1205
vn -0.9000 0.4282 0.0813
vn -0.8891 0.4577 0.0046
vn -0.5594 0.8080 0.1849
vn 0.0000 -0.0000 1.0000
vn -0.9983 -0.0540 -0.0209
vn -0.2045 0.9789 0.0000
vn -0.2016 0.9795 -0.0004
vn -0.2030 0.9792 0.0021
vn -0.9850 0.1697 -0.0318
vn -0.9851 0.1679 -0.0362
vn -0.9852 0.1675 -0.0372
vn 0.6693 -0.7341 0.1144
vn -0.0000 0.0000 -1.0000
vn 0.6717 0.7367 0.0780
vn 0.3413 -0.9276 0.1519
vn 0.3733 -0.9224 0.0994
vn -0.6469 0.7574 0.0885
vn -0.6465 0.7577 0.0885
vn 0.0395 0.9963 0.0767
vn -0.0312 0.9974 0.0650
vn -0.4430 -0.8883 0.1216
vn -0.9957 -0.0540 0.0758
vn -0.9941 -0.0725 0.0811
vn -0.1095 -0.9920 0.0631
vn 0.0453 -0.9959 0.0777
vn -0.2520 -0.0017 0.9677
vn 0.0124 0.4156 0.9095
vn -0.0418 -0.1133 0.9927
vn 1.0000 -0.0009 0.0026
vn 1.0000 -0.0000 0.0000
vn -0.4554 -0.7989 0.3929
vn 1.0000 0.0027 -0.0064
vn 1.0000 -0.0026 0.0003
vn 0.1526 -0.9582 0.2419
vn -0.5299 -0.6702 0.5197
vn 1.0000 -0.0026 0.0006
vn -0.5842 -0.5731 0.5746
vn 1.0000 0.0016 0.0004
vn -0.5597 -0.1534 0.8144
vn -0.9774 -0.2029 0.0589
vn -0.4973 -0.2238 0.8382
vn 0.1451 0.9867 0.0735
vn -0.2035 0.9767 0.0675
vn 0.6877 0.6899 -0.2260
vn -0.4863 -0.1206 0.8654
vn -0.4286 -0.0730 0.9005
vn -0.6019 -0.0359 0.7977
vn -0.5330 -0.0553 0.8443
vn 0.8323 0.4445 -0.3311
vn 0.8277 0.4165 -0.3760
vn -0.0346 0.0548 0.9979
vn 0.2013 0.9795 0.0039
vn -0.5451 -0.4137 0.7292
vn -0.2005 0.9737 0.1082
vn -0.5411 -0.4513 0.7096
vn -0.2058 -0.9759 0.0727
vn -0.5416 0.4725 0.6953
vn -0.9568 0.2649 0.1199
vn 0.5830 0.7921 -0.1805
vn 0.6407 0.7392 -0.2076
vn -0.4491 0.8068 0.3839
vn -0.5246 0.6829 0.5083
vn -0.5278 0.6741 0.5168
vn -0.5303 0.6712 0.5179
vn -0.6016 0.5497 0.5795
vn -0.5252 0.6790 0.5129
vn 0.5277 -0.8378 -0.1402
vn -0.9751 -0.2005 0.0952
vn -0.9576 -0.2638 0.1158
vn -0.6064 -0.4866 0.6289
vn 0.2005 -0.9797 0.0040
vn -0.5043 0.2905 0.8132
vn -0.5266 -0.2796 0.8028
vn -0.7117 0.4511 0.5385
vn -0.6381 0.4633 0.6150
vn -0.9757 0.2054 0.0762
vn -0.0021 0.0004 1.0000
vn -0.0006 0.0016 1.0000
vn -0.5166 0.0137 0.8561
vn 0.1199 0.8986 0.4221
vn 0.1200 -0.6367 0.7617
vn 1.0000 0.0002 0.0002
vn 0.0991 -0.7550 0.6482
vn 1.0000 0.0002 0.0003
vn -0.4418 0.0782 0.8937
vn -0.5059 0.0769 0.8592
vn -0.4835 0.1009 0.8695
vn -0.5364 0.0982 0.8382
vn 1.0000 0.0005 -0.0007
vn 0.0044 -0.4350 0.9004
vn -0.0337 -0.0039 -0.9994
vn 1.0000 -0.0005 -0.0002
vn -0.0160 0.0039 -0.9999
vn -0.4709 0.2314 0.8513
vn 1.0000 -0.0023 0.0018
vn 0.1383 0.8016 0.5816
vn 1.0000 0.0021 0.0048
vn 0.0879 0.6690 0.7380
vn 0.4759 -0.8733 -0.1044
vn 1.0000 0.0005 -0.0013
vn 0.8445 -0.0980 -0.5265
vn 0.8053 -0.4558 -0.3792
vn 0.8653 -0.4298 0.2580
vn 0.8655 -0.4294 0.2578
vn 0.8657 -0.4292 0.2576
vn 0.8911 -0.2600 -0.3720
vn 0.8707 0.1157 -0.4780
vn 1.0000 -0.0043 0.0011
vn 0.6734 0.0036 -0.7393
vn 0.6714 0.0045 -0.7411
vn 0.6728 -0.0041 -0.7398
vn 1.0000 0.0037 0.0052
vn -0.0007 0.0000 1.0000
vn -0.0036 -0.0016 1.0000
vn -0.0042 0.0004 1.0000
vn 0.0196 -0.0005 0.9998
vn -0.1201 0.8976 0.4241
vn 0.2061 0.7862 0.5826
vn 0.2665 0.6285 0.7307
vn 0.7130 0.6193 0.3288
vn 0.7351 0.1579 0.6594
vn 0.8603 0.0940 0.5011
vn 0.6875 -0.2350 0.6871
vn 0.5305 -0.6783 0.5084
vn 0.3422 -0.6471 0.6812
vn 0.0706 -0.8909 0.4487
vn -0.2202 -0.7473 0.6269
vn -0.9796 0.1984 -0.0328
vn -0.9782 -0.2071 -0.0173
vn -0.2431 -0.9697 0.0239
vn -0.2431 -0.9697 0.0228
vn -0.2437 -0.9696 0.0235
vn -0.1984 -0.9796 -0.0315
vn 0.1990 -0.9795 0.0316
vn 0.2071 -0.9781 -0.0197
vn 0.9799 -0.1984 -0.0221
vn 0.9794 0.1988 0.0366
vn 0.9747 0.1813 0.1310
vn 0.9780 0.2071 -0.0245
vn 0.2071 0.9780 0.0245
vn 0.1984 0.9796 -0.0315
vn -0.2019 0.9793 0.0153
vn -0.1845 0.9824 0.0293
vn -0.2071 0.9781 -0.0183
vn -0.9555 -0.2484 0.1593
vn -0.9188 -0.3015 0.2548
vn -0.9189 -0.3011 0.2549
vn -0.9705 -0.1733 0.1674
vn -0.9740 -0.1743 0.1446
vn 0.2167 0.9604 0.1750
vn 0.2039 0.9632 0.1751
vn 0.2040 0.9632 0.1750
vn 0.2039 0.9627 0.1778
vn 0.2018 0.9536 0.2233
vn 0.2040 0.9504 0.2348
vn 0.2486 0.9539 0.1680
vn 0.2495 0.9538 0.1675
vn 0.2570 0.9512 0.1711
vn -0.9575 0.2415 0.1578
vn -0.2994 -0.8065 0.5098
vn 0.9572 0.1881 0.2199
vn 0.9574 0.1877 0.2194
vn 0.9573 0.1878 0.2198
vn 0.3454 -0.7666 0.5413
vn 0.1961 -0.9666 0.1649
vn 0.1962 -0.9667 0.1646
vn 0.1967 -0.9708 0.1374
vn 0.1966 -0.9708 0.1371
vn 0.1967 -0.9707 0.1378
vn 0.1918 -0.9616 0.1962
vn -0.1819 0.9672 0.1774
vn -0.1319 0.9723 0.1929
vn -0.1745 0.9707 0.1649
vn -0.1964 0.9658 0.1693
vn 0.0918 -0.9772 0.1917
vn 0.0797 -0.9832 0.1640
vn -0.9769 0.2067 0.0541
vn -0.9768 0.2072 0.0540
vn -0.9767 0.2075 0.0549
vn -0.4124 -0.9044 0.1093
vn -0.9726 0.1819 0.1445
vn -0.1923 -0.9675 0.1644
vn -0.2369 -0.9467 0.2185
vn -0.3390 -0.9143 0.2217
vn -0.3391 -0.9143 0.2217
vn -0.3393 -0.9142 0.2217
vn -0.2016 -0.9648 0.1686
vn -0.5237 0.6728 0.5226
vn -0.4943 0.8260 0.2707
vn -0.4949 0.8256 0.2710
vn -0.4951 0.8257 0.2705
vn -0.4940 0.8263 0.2706
vn -0.2993 0.7706 0.5627
vn -0.9850 -0.0213 0.1715
vn -0.0215 -0.0010 0.9998
vn -0.0185 -0.0001 0.9998
vn -0.0169 -0.0004 0.9999
vn -0.0200 0.0002 0.9998
vn -0.5095 -0.8156 0.2742
vn 0.7931 -0.5194 -0.3182
vn 0.6718 -0.0046 -0.7407
vn 0.7823 -0.3965 0.4804
vn -0.9838 -0.1756 0.0375
vn -0.6917 0.7177 0.0796
vn -0.6920 0.7174 0.0803
vn -0.6923 0.7173 0.0790
vn -0.8484 -0.5215 0.0913
vn 0.0191 0.9972 0.0724
vn 0.0189 0.9972 0.0725
vn 0.0182 0.9972 0.0722
vn 0.0223 -0.9971 0.0733
vn 0.1424 -0.9873 0.0700
vn 0.1512 0.9416 0.3008
vn -0.5374 -0.1340 0.8326
vn 0.1439 -0.8720 0.4679
vn 0.0623 -0.3028 0.9510
vn -0.2224 -0.9712 0.0858
vn -0.9805 0.1894 0.0530
vn -0.5001 0.0056 0.8660
vn 0.0471 0.3340 0.9414
vn 0.1004 0.5957 0.7969
vn 0.6794 0.6057 0.4142
vn -0.9779 0.2074 0.0252
vn -0.9793 -0.2015 0.0185
vn -0.1946 -0.9794 -0.0543
vn -0.2065 -0.9784 0.0041
vn 0.9778 -0.2069 0.0322
vn 0.2525 0.9509 0.1793
vn 0.5822 -0.7592 0.2910
vn 0.8554 -0.5156 0.0493
vn 0.9030 -0.4170 -0.1033
vn 0.9651 -0.0852 -0.2478
vn 0.9873 -0.1502 -0.0521
vn 0.9502 -0.3104 0.0286
vn 0.9927 0.1183 0.0229
vn 0.9826 -0.0505 -0.1785
vn 0.9506 0.3084 0.0367
vn 0.9729 0.2098 -0.0973
vn 0.8641 0.5032 0.0137
vn 0.8845 0.4641 -0.0483
vn 0.7920 0.6092 0.0409
vn 0.0000 1.0000 0.0000
vn 0.0000 -0.9678 -0.2516
vn 0.0239 -0.0606 -0.9979
vn 0.0335 -0.0449 -0.9984
vn -0.9861 -0.1658 -0.0105
vn -0.9581 -0.2712 -0.0919
vn -0.9679 -0.2489 -0.0363
vn -0.9211 -0.3892 0.0013
vn -0.9155 -0.4020 -0.0163
vn -0.8000 -0.6000 -0.0000
vn -0.8359 -0.5486 0.0174
vn -0.8551 -0.5184 -0.0107
vn -0.9926 -0.1067 -0.0573
vn -0.9955 0.0394 -0.0864
vn -0.9895 0.1436 -0.0180
vn -0.9771 0.1886 -0.0989
vn -0.9622 0.2723 -0.0056
vn -0.9062 0.4186 -0.0602
vn -0.9211 0.3892 -0.0079
vn -0.8340 0.5517 0.0025
vn -0.8360 0.5486 0.0051
vn -0.8331 0.5531 -0.0006
vn -0.8321 0.5547 0.0000
vn -0.0646 -0.0844 -0.9943
vn 0.0036 -0.0044 -1.0000
vn 0.0007 -0.0039 -1.0000
vn 0.0017 -0.0046 -1.0000
vn -0.0059 -0.0002 -1.0000
vn -0.0003 0.0032 -1.0000
vn 0.0008 0.0053 -1.0000
vn 0.0152 0.0003 -0.9999
vn 0.0012 0.0056 -1.0000
vn -0.0003 -0.0032 -1.0000
vn 0.0005 -0.0013 -1.0000
vn 0.0005 0.0013 -1.0000
vn -0.0055 -0.0019 -1.0000
vn 0.0018 0.0065 -1.0000
vn 0.0031 -0.0081 -1.0000
vn 0.0204 0.0065 -0.9998
vn 0.0040 -0.0047 -1.0000
vn 0.6074 -0.7944 -0.0000
vn 0.6171 -0.7868 0.0146
vn 0.6074 0.7944 0.0032
vn 0.6074 0.7944 0.0030
vn 0.6098 0.7925 0.0004
vn 0.6097 0.7926 0.0000
vn -0.0215 -0.2108 -0.9773
vn -0.0379 -0.1718 -0.9844
vn -0.0624 -0.1966 -0.9785
vn -0.0716 -0.1509 -0.9860
vn -0.0699 -0.1499 -0.9862
vn -0.0735 -0.1520 -0.9856
vn -0.0319 0.1762 -0.9838
vn -0.0329 0.1663 -0.9855
vn -0.0313 0.1651 -0.9858
vn -0.0429 0.1745 -0.9837
vn -0.0226 0.1712 -0.9850
vn -0.0221 0.1740 -0.9845
vn -0.1033 0.1904 -0.9763
vn -0.1051 0.1902 -0.9761
vn -0.1007 0.1792 -0.9786
vn -0.0947 0.1353 -0.9863
vn -0.0954 0.1804 -0.9790
vn -0.6188 0.7313 -0.2869
vn -0.2066 0.9771 0.0508
vn -0.1987 0.9801 0.0000
vn -0.9763 0.1953 0.0937
vn -0.9765 0.2146 -0.0206
vn -0.7313 -0.6188 -0.2869
vn -0.9773 -0.2055 0.0516
vn -0.9757 -0.2077 0.0700
vn -0.1989 -0.9797 0.0237
vn -0.2047 -0.9787 -0.0159
vn 0.8167 -0.5367 0.2123
vn 0.3697 -0.9242 0.0961
vn 0.2008 -0.9793 -0.0242
vn 0.1982 -0.9799 -0.0203
vn 0.2068 -0.9782 -0.0174
vn 0.2024 -0.9792 -0.0117
vn 0.9799 -0.1955 0.0391
vn 0.9770 -0.2074 -0.0502
vn 0.9242 0.3697 0.0961
vn 0.9793 0.2008 -0.0242
vn 0.9792 0.1988 -0.0398
vn 0.1987 0.9801 0.0000
vn 0.2066 0.9771 -0.0508
vn -0.2025 0.9793 -0.0017
vn -0.2044 0.9789 -0.0000
vn -0.9849 0.1702 -0.0304
vn 0.6591 -0.7470 0.0868
vn 0.7071 0.7071 0.0000
vn 0.1306 -0.9165 0.3780
vn -0.9701 -0.2268 0.0858
vn 0.1737 0.9839 0.0422
vn -0.2224 0.9714 0.0837
vn 0.0812 0.1629 0.9833
vn -0.5534 0.3709 0.7458
vn -0.7347 -0.4252 0.5285
vn -0.5160 0.2523 0.8186
vn -0.5230 -0.2939 0.8001
vn -0.8937 -0.3892 0.2232
vn -0.9085 0.3593 0.2133
vn -0.6819 -0.7299 0.0463
usemtl Default_OBJ.011
s 1
f 1//1 2//1 3//1
f 1//2 3//2 4//2
f 5//3 6//3 7//3
f 8//4 9//4 10//4
f 8//5 10//5 11//5
f 11//6 10//6 12//6
f 11//7 12//7 13//7
f 13//8 12//8 14//8
f 14//9 12//9 15//9
f 14//10 15//10 16//10
f 16//11 15//11 17//11
f 18//12 19//12 20//12
f 18//12 20//12 21//12
f 21//13 20//13 22//13
f 21//14 22//14 23//14
f 23//15 22//15 24//15
f 23//16 24//16 25//16
f 26//17 2//17 27//17
f 27//18 2//18 1//18
f 26//19 27//19 28//19
f 26//20 28//20 29//20
f 30//21 31//21 32//21
f 29//22 28//22 33//22
f 30//23 32//23 33//23
f 33//24 32//24 29//24
f 34//25 35//25 36//25
f 34//26 36//26 37//26
f 38//27 37//27 36//27
f 1//28 38//28 27//28
f 31//29 30//29 39//29
f 38//28 16//28 18//28
f 37//30 23//31 25//32
f 38//28 18//28 21//28
f 39//33 34//34 31//35
f 38//28 36//28 35//28
f 38//28 21//28 23//28
f 7//36 9//36 5//36
f 38//28 35//28 39//28
f 38//28 39//28 30//28
f 22//37 20//37 19//37
f 38//28 30//28 33//28
f 38//28 33//28 28//28
f 22//37 19//37 17//37
f 38//28 28//28 27//28
f 22//37 25//37 24//37
f 17//38 19//38 16//38
f 8//28 38//28 5//28
f 4//39 5//39 1//39
f 38//28 11//28 13//28
f 4//40 6//40 5//40
f 38//28 13//28 14//28
f 38//28 14//28 16//28
f 40//41 41//42 42//42
f 43//43 44//43 45//43
f 46//44 43//44 47//44
f 48//45 49//45 50//45
f 48//46 51//46 49//46
f 52//47 49//47 51//47
f 53//48 54//48 55//48
f 53//49 56//49 54//49
f 57//50 58//50 59//50
f 60//51 57//51 61//51
f 59//52 58//52 62//52
f 63//53 64//54 61//54
f 65//55 66//55 54//55
f 63//53 67//56 68//57
f 69//58 70//58 71//58
f 54//59 72//59 65//59
f 63//53 68//57 73//60
f 74//61 65//61 72//61
f 63//53 73//60 75//62
f 52//63 76//63 77//63
f 78//64 52//64 51//64
f 79//65 80//65 81//65
f 75//66 45//66 44//66
f 40//67 43//67 46//67
f 82//68 73//68 68//68
f 80//69 58//69 83//69
f 77//70 84//70 52//70
f 49//71 52//71 84//71
f 85//72 83//72 58//72
f 82//73 67//73 86//73
f 82//74 68//74 67//74
f 57//75 62//75 87//75
f 73//76 88//76 45//76
f 89//77 72//77 70//77
f 40//78 46//78 90//78
f 54//79 70//79 72//79
f 55//80 54//80 91//80
f 92//81 44//81 43//81
f 93//82 94//82 41//82
f 95//83 88//83 73//83
f 73//84 82//84 95//84
f 42//85 41//85 43//85
f 92//86 41//87 96//88
f 41//89 97//89 96//89
f 41//87 92//86 43//90
f 98//91 99//91 100//91
f 78//92 51//92 101//92
f 65//93 76//93 78//93
f 65//94 77//94 76//94
f 56//95 99//95 71//95
f 102//96 103//96 44//96
f 89//97 79//97 81//97
f 41//98 94//98 97//98
f 94//99 104//99 97//99
f 93//100 50//100 49//100
f 105//101 106//102 107//28
f 57//103 108//103 85//103
f 103//104 63//104 44//104
f 109//105 110//105 80//105
f 63//53 61//54 87//106
f 79//107 109//107 80//107
f 63//53 87//106 62//108
f 94//109 84//109 104//109
f 94//110 49//110 84//110
f 57//111 60//111 108//111
f 60//112 111//112 108//112
f 63//53 62//108 110//113
f 110//114 58//114 80//114
f 82//115 86//115 112//115
f 63//53 110//113 109//116
f 112//117 113//117 114//117
f 111//118 60//118 103//118
f 63//53 109//116 69//119
f 103//120 64//120 63//120
f 63//53 69//119 71//121
f 64//122 103//122 60//122
f 98//123 71//123 99//123
f 63//53 71//121 98//124
f 115//125 116//125 113//125
f 117//126 100//126 113//126
f 114//127 113//128 100//129
f 63//53 98//124 117//54
f 116//130 117//130 113//130
f 67//131 115//131 86//131
f 63//53 117//54 116//132
f 112//133 86//134 115//135
f 63//53 116//132 115//136
f 63//53 115//136 67//56
f 118//137 105//101 119//138
f 119//138 120//139 118//137
f 107//140 121//140 105//140
f 122//141 119//141 123//141
f 123//142 119//142 124//142
f 124//143 119//143 105//143
f 108//144 111//144 124//144
f 105//145 121//145 108//145
f 108//146 121//146 85//146
f 121//147 107//147 85//147
f 83//148 107//148 125//148
f 125//149 107//149 106//149
f 125//150 106//150 126//150
f 126//151 106//151 118//151
f 50//152 127//152 128//152
f 101//153 128//153 129//153
f 91//154 101//155 129//156
f 130//157 129//157 131//157
f 130//158 131//158 114//158
f 114//159 131//159 132//159
f 112//160 132//160 133//160
f 133//161 82//161 112//161
f 133//162 134//162 82//162
f 134//163 133//163 135//163
f 134//164 135//164 136//164
f 136//165 135//165 137//165
f 137//166 90//166 46//166
f 46//167 136//167 137//167
f 90//168 137//168 127//168
f 137//37 135//37 133//37
f 131//37 133//37 132//37
f 133//37 131//37 129//37
f 74//169 138//169 77//169
f 128//37 133//37 129//37
f 78//170 101//170 139//171
f 51//172 48//172 50//172
f 127//37 133//37 128//37
f 138//173 84//173 77//173
f 45//174 136//174 47//174
f 134//175 136//176 88//177
f 136//178 45//178 88//178
f 88//179 95//179 134//179
f 111//180 102//181 123//182
f 140//183 97//183 104//183
f 141//184 126//184 118//184
f 134//185 95//186 82//187
f 99//188 114//188 100//188
f 130//189 114//190 56//190
f 114//191 99//192 56//193
f 56//194 53//194 130//194
f 136//195 46//195 47//195
f 122//196 123//196 102//196
f 122//197 102//197 92//197
f 92//198 96//198 122//198
f 89//199 81//199 126//199
f 125//200 126//200 81//200
f 90//201 50//202 93//203
f 91//204 65//204 139//204
f 104//205 84//205 140//205
f 53//206 55//206 130//206
f 101//207 91//207 139//207
f 74//208 72//209 141//210
f 72//211 89//211 126//211
f 40//212 90//212 93//212
f 97//213 120//214 122//215
f 122//215 96//216 97//213
f 120//217 119//217 122//217
f 138//218 140//218 84//218
f 138//219 120//220 140//221
f 138//219 118//222 120//220
f 141//223 118//223 74//223
f 117//224 98//224 100//224
f 115//135 113//225 112//133
f 107//226 83//226 85//226
f 51//227 50//227 128//227
f 41//228 40//229 93//230
f 65//231 78//231 139//231
f 43//232 45//233 47//234
f 70//235 54//235 56//235
f 56//236 71//236 70//236
f 63//237 75//237 44//237
f 81//238 80//238 83//238
f 109//239 79//239 69//239
f 62//240 58//240 110//240
f 54//241 66//241 91//241
f 49//242 94//242 93//242
f 58//243 57//243 85//243
f 87//244 61//244 57//244
f 61//245 64//245 60//245
f 124//246 105//246 108//246
f 90//247 127//247 50//247
f 51//248 128//248 101//248
f 129//249 130//249 55//249
f 55//250 91//250 129//250
f 132//251 112//251 114//251
f 123//182 124//252 111//180
f 83//253 125//253 81//253
f 126//210 141//210 72//209
f 142//254 143//254 144//254
f 144//255 143//255 145//255
f 146//256 147//256 145//256
f 147//257 148//257 145//257
f 145//258 148//258 144//258
f 149//259 150//259 146//259
f 146//260 150//260 147//260
f 151//261 149//261 152//261
f 152//262 149//262 146//262
f 153//263 151//263 154//263
f 154//264 151//264 152//264
f 153//265 154//265 155//265
f 156//266 157//266 158//266
f 156//266 158//266 159//266
f 160//267 161//267 162//267
f 150//268 163//268 164//268
f 147//269 150//269 164//269
f 165//270 166//270 167//270
f 165//271 167//271 168//271
f 168//272 167//272 169//272
f 168//273 169//273 170//273
f 170//274 169//274 171//274
f 172//275 173//275 174//275
f 174//276 173//276 170//276
f 174//277 170//277 171//277
f 166//278 163//278 167//278
f 166//279 164//279 163//279
f 164//280 166//280 175//280
f 164//281 175//281 176//281
f 176//282 175//282 177//282
f 178//283 179//283 176//283
f 178//284 176//284 177//284
f 179//285 178//286 180//287
f 179//285 180//287 181//288
f 181//289 142//289 179//289
f 153//37 155//37 174//37
f 174//37 155//37 172//37
f 175//37 182//37 177//37
f 177//37 182//37 178//37
f 183//290 156//291 143//292
f 154//293 160//294 162//295
f 165//37 168//37 184//37
f 184//37 168//37 170//37
f 184//37 170//37 173//37
f 184//37 173//37 185//37
f 185//296 173//296 154//296
f 185//297 154//293 162//295
f 143//292 159//298 186//299
f 154//293 187//300 160//294
f 188//301 146//37 145//302
f 154//293 188//301 187//300
f 146//37 188//301 152//303
f 152//303 188//301 154//293
f 178//37 182//37 180//37
f 180//304 182//304 143//304
f 143//292 182//305 183//290
f 143//292 156//291 159//298
f 143//292 186//299 188//301
f 143//292 188//301 145//302
f 172//306 155//306 173//306
f 173//307 155//307 154//307
f 142//308 181//309 143//310
f 143//310 181//309 180//311
f 148//312 147//312 164//312
f 148//313 164//313 176//313
f 148//314 176//314 144//314
f 144//315 176//316 179//315
f 179//315 142//317 144//315
f 167//318 149//319 169//320
f 169//321 149//321 171//321
f 163//322 150//323 167//318
f 167//318 150//323 149//319
f 171//324 149//325 151//326
f 153//327 174//327 171//327
f 153//328 171//324 151//326
f 182//329 189//329 183//329
f 189//330 157//330 183//330
f 183//331 157//331 156//331
f 166//332 189//332 175//332
f 175//333 189//333 182//333
f 185//334 190//334 184//334
f 190//335 166//335 184//335
f 184//336 166//336 165//336
f 161//337 190//337 162//337
f 162//338 190//338 185//338
f 187//339 191//339 192//339
f 187//340 192//340 193//340
f 193//341 161//342 187//343
f 187//343 161//342 160//344
f 194//345 191//345 188//345
f 188//346 191//346 187//346
f 186//347 195//347 196//347
f 196//348 194//348 186//348
f 186//349 194//349 188//349
f 158//350 197//350 159//350
f 159//351 197//351 186//351
f 5//28 38//28 1//28
f 38//352 23//31 37//353
f 35//354 34//34 39//33
f 5//355 9//355 8//355
f 16//356 19//356 18//356
f 11//28 38//28 8//28
f 79//357 70//357 69//357
f 76//358 52//358 78//358
f 73//359 45//359 75//359
f 42//360 43//360 40//360
f 59//361 62//361 57//361
f 102//362 44//362 92//362
f 74//363 77//363 65//363
f 111//364 103//364 102//364
f 70//365 79//365 89//365
f 118//137 106//102 105//101
f 118//366 138//366 74//366
f 137//37 133//37 127//37
f 120//367 97//367 140//367
f 66//368 65//368 91//368
